<?xml version="1.0" encoding="iso-8859-1"?>
<!-- Generator: Adobe Illustrator 19.0.0, SVG Export Plug-In . SVG Version: 6.00 Build 0)  -->
<svg version="1.1" id="Capa_1" xmlns="http://www.w3.org/2000/svg" xmlns:xlink="http://www.w3.org/1999/xlink" x="0px" y="0px"
	 viewBox="0 0 512 512" style="enable-background:new 0 0 512 512;" xml:space="preserve">
<g>
	<g>
		<path d="M120.887,254.826c-52.201,0-94.668,42.468-94.668,94.668s42.468,94.668,94.668,94.668
			c52.201,0,94.668-42.468,94.668-94.668S173.088,254.826,120.887,254.826z M120.887,428.923c-43.798,0-79.43-35.632-79.43-79.43
			s35.632-79.43,79.43-79.43c43.798,0,79.43,35.632,79.43,79.43S164.685,428.923,120.887,428.923z"/>
	</g>
</g>
<g>
	<g>
		<path d="M391.109,254.826c-52.201,0-94.668,42.468-94.668,94.668s42.468,94.668,94.668,94.668
			c52.201,0,94.668-42.468,94.668-94.668S443.31,254.826,391.109,254.826z M391.109,428.923c-43.798,0-79.43-35.632-79.43-79.43
			s35.632-79.43,79.43-79.43s79.43,35.632,79.43,79.43S434.908,428.923,391.109,428.923z"/>
	</g>
</g>
<g>
	<g>
		<path d="M486.597,275.592c8.492-10.836,13.112-24.105,13.112-38.088c0-18.904-8.463-36.416-22.955-48.117
			c3.184-6.727,4.843-14.084,4.843-21.627c0-27.928-22.721-50.649-50.649-50.649c-1.983,0-3.964,0.117-5.931,0.348
			c-9.096-23.651-31.93-39.625-57.787-39.625c-4.414,0-8.793,0.469-13.086,1.398c-12.519-23.052-36.679-37.616-63.266-37.616
			c-12.266,0-24.228,3.106-34.879,9.02c-10.652-5.914-22.614-9.02-34.879-9.02c-1.93,0-3.861,0.077-5.783,0.231
			c-4.58,0.366-7.836,4.607-6.928,9.11l0.001,0.005c0.764,3.788,4.243,6.388,8.096,6.078c1.533-0.124,3.074-0.186,4.615-0.186
			c9.581,0,18.925,2.404,27.26,6.982v23.45c0,4.172,3.214,7.81,7.384,7.935c4.314,0.13,7.854-3.33,7.854-7.616V63.837
			c8.336-4.578,17.68-6.982,27.26-6.982c22.696,0,43.15,13.465,52.138,34.311c0.573,1.505,7.535,21.073-8.466,43.345
			c-2.319,3.227-1.868,7.806,1.166,10.373c1.45,1.226,3.197,1.813,4.927,1.813c2.365,0,4.696-1.098,6.185-3.161
			c14.615-20.256,14.337-39.284,12.505-49.784c2.604-0.447,5.242-0.679,7.897-0.679c19.11,0,36.021,11.573,43.14,28.818
			c-8.439,4.257-21.731,13.603-26.86,31.769c-1.101,3.901,0.857,8.154,4.674,9.519c0.859,0.307,1.731,0.452,2.584,0.452
			c3.343,0,6.411-2.219,7.342-5.599c5.035-18.286,22.15-24.001,23.739-24.494c2.968-0.786,6.028-1.188,9.098-1.188
			c19.526,0,35.411,15.885,35.411,35.411c0,6.933-2.003,13.641-5.796,19.412c-0.597,0.908-1.08,1.903-1.278,2.971
			c-0.593,3.204,0.844,6.264,3.413,7.889c13.633,8.625,21.772,23.38,21.772,39.471c0,9.578-2.875,18.708-8.198,26.427
			c-14.605-14.558-32.229-24.95-51.441-30.545c-5.577-11.781-5.955-22.594-1.092-32.176c4.028-7.936,10.317-12.302,10.523-12.443
			c3.49-2.318,4.454-7.024,2.151-10.529c-2.311-3.518-7.035-4.496-10.551-2.184c-0.95,0.624-9.449,6.416-15.325,17.517
			c-4.34,8.196-7.794,20.482-3.37,36.092c-4.841-0.644-9.748-1.001-14.704-1.056c-10.982-0.115-21.797,1.231-32.214,3.972
			c-0.008-4.423-0.428-9.709-1.753-15.308c-3.267-13.803-12.692-32.184-39.043-41.366c-3.948-1.378-8.262,0.687-9.675,4.611
			c-1.435,3.987,0.823,8.429,4.821,9.835c30.738,10.804,31.203,37.453,30.209,47.459c-7.723,3.205-15.144,7.211-22.141,12.025
			c-17.396,11.97-31.192,28.029-40.314,46.818c-2.414-1.411-4.945-2.602-7.542-3.605c-1.969-8.577-9.648-14.999-18.813-14.999
			c-9.166,0-16.846,6.424-18.814,15.002c-2.597,1.006-5.126,2.196-7.538,3.604c-9.122-18.792-22.918-34.849-40.315-46.82
			c-6.991-4.811-14.402-8.815-22.115-12.021c-0.359-3.834-0.516-10.156,1.111-17.032c3.452-14.585,13.18-24.804,28.916-30.378
			c3.828-1.356,6.222-5.344,5.169-9.265c-1.162-4.325-5.717-6.682-9.87-5.234c-26.35,9.182-35.776,27.564-39.043,41.366
			c-1.325,5.595-1.744,10.876-1.753,15.298c-10.412-2.739-21.223-4.083-32.213-3.961c-4.955,0.055-9.864,0.411-14.705,1.057
			c4.424-15.611,0.97-27.896-3.37-36.092c-5.878-11.1-14.377-16.893-15.325-17.517c-3.518-2.312-8.241-1.333-10.551,2.184
			c-2.31,3.517-1.333,8.241,2.184,10.551c0.978,0.643,23.088,15.619,9.407,44.595c-19.213,5.595-36.839,15.987-51.445,30.545
			c-5.324-7.724-8.203-16.864-8.203-26.425c0-16.018,8.066-30.714,21.589-39.355c0.914-0.584,1.754-1.3,2.368-2.196
			c1.838-2.686,1.766-6.058,0.081-8.584c-3.877-5.816-5.926-12.596-5.926-19.608c0-19.526,15.885-35.411,35.411-35.411
			c3.074,0,6.139,0.402,9.112,1.191c1.288,0.398,18.658,6.092,23.724,24.491c0.931,3.38,3.997,5.598,7.342,5.598
			c0.853,0,1.725-0.144,2.585-0.452c3.817-1.364,5.776-5.617,4.674-9.519c-5.129-18.167-18.421-27.512-26.859-31.769
			c7.119-17.245,24.03-28.818,43.14-28.818c2.655,0,5.294,0.233,7.897,0.679c-1.833,10.5-2.11,29.528,12.505,49.784
			c1.489,2.064,3.82,3.161,6.185,3.161c1.731,0,3.481-0.589,4.932-1.817c3.03-2.566,3.481-7.141,1.164-10.366
			c-16.003-22.271-9.043-41.841-8.468-43.348c3.726-8.643,9.453-16.122,16.746-21.932c3.02-2.406,3.764-6.688,1.727-9.969
			l-0.005-0.007c-2.425-3.904-7.699-4.752-11.291-1.885c-7.516,6-13.717,13.4-18.307,21.86c-4.293-0.93-8.672-1.398-13.084-1.398
			c-25.857,0-48.691,15.976-57.787,39.625c-1.967-0.232-3.948-0.348-5.931-0.348c-27.928,0-50.649,22.721-50.649,50.649
			c0,7.543,1.659,14.9,4.843,21.627C20.754,201.089,12.29,218.6,12.29,237.505c0,13.961,4.622,27.248,13.113,38.092
			c-16.812,21.58-25.751,47.922-25.393,75.5c0.414,32.011,13.211,62.024,36.032,84.51c22.768,22.434,52.887,34.776,84.847,34.776
			c0.108,0,0.217,0,0.325,0c31.568-0.084,61.465-12.389,84.186-34.648c22.724-22.264,35.632-51.902,36.345-83.45
			c0.075-3.223,0.02-6.463-0.161-9.605c-0.155-2.852,0.451-5.617,1.681-8.034c3.404,2.996,7.854,4.828,12.734,4.828
			c4.869,0,9.312-1.826,12.712-4.809c1.233,2.429,1.852,5.205,1.695,8.014c-0.175,3.209-0.226,6.441-0.151,9.598
			c0.713,31.554,13.62,61.193,36.343,83.456c22.719,22.261,52.614,34.565,84.178,34.649c0.106,0,0.211,0,0.317,0
			c17.572,0,34.972-3.839,50.807-11.163c3.991-1.846,5.561-6.713,3.447-10.569c-1.932-3.524-6.258-4.917-9.907-3.232
			c-13.818,6.382-29.003,9.726-44.346,9.726c-0.091,0-0.186,0-0.277,0c-27.568-0.073-53.69-10.832-73.554-30.295
			c-19.866-19.465-31.151-45.361-31.773-72.924c-0.065-2.77-0.021-5.602,0.132-8.407c0.533-9.566-3.348-18.685-10.306-24.788v-8.534
			c1.784,1.092,3.482,2.334,5.065,3.715c1.082,0.945,2.362,1.667,3.777,1.912c3.784,0.654,7.221-1.45,8.502-4.732
			c7.722-19.779,21.084-36.621,38.647-48.706c17.975-12.369,39.08-18.793,60.991-18.543c28.099,0.312,54.481,11.657,74.287,31.946
			c19.822,20.304,30.535,46.979,30.168,75.11c-0.376,29.021-12.563,56.321-33.684,75.956c-2.949,2.742-3.303,7.283-0.764,10.409
			l0.001,0.001c2.767,3.408,7.856,3.799,11.074,0.813c24.208-22.469,38.181-53.737,38.611-86.98
			C512.349,323.518,503.407,297.176,486.597,275.592z M236.682,318.732c-6.951,6.106-10.835,15.226-10.312,24.804
			c0.159,2.756,0.207,5.58,0.141,8.398c-0.623,27.556-11.907,53.452-31.774,72.916c-19.866,19.463-45.991,30.222-73.562,30.295
			c-0.096,0-0.188,0-0.283,0c-27.929,0-54.256-10.788-74.153-30.393c-19.945-19.652-31.128-45.881-31.49-73.854
			c-0.367-28.13,10.347-54.804,30.167-75.11c19.807-20.29,46.189-31.635,74.286-31.946c21.916-0.254,43.018,6.173,60.993,18.543
			c17.561,12.085,30.925,28.927,38.646,48.706c0.905,2.317,2.884,4.047,5.302,4.634c2.417,0.586,4.969-0.043,6.835-1.689
			c1.62-1.428,3.367-2.711,5.205-3.836V318.732z M260.077,320.159c0,2.248-1.83,4.078-4.079,4.078c-2.249,0-4.079-1.83-4.079-4.078
			v-22.796c0-2.249,1.83-4.079,4.079-4.079c2.249,0,4.079,1.83,4.079,4.079V320.159z"/>
	</g>
</g>
<g>
	<g>
		<path d="M255.998,197.151c-4.208,0-7.619,3.411-7.619,7.619v41.313c0,4.208,3.411,7.619,7.619,7.619
			c4.208,0,7.619-3.411,7.619-7.619V204.77C263.617,200.562,260.206,197.151,255.998,197.151z"/>
	</g>
</g>
<g>
	<g>
		<path d="M407.871,329.215h-66.032c-4.208,0-7.619,3.411-7.619,7.619c0,4.208,3.411,7.619,7.619,7.619h66.032
			c4.208,0,7.619-3.411,7.619-7.619C415.49,332.627,412.079,329.215,407.871,329.215z"/>
	</g>
</g>
<g>
	<g>
		<path d="M407.871,353.596h-66.032c-4.208,0-7.619,3.411-7.619,7.619s3.411,7.619,7.619,7.619h66.032
			c4.208,0,7.619-3.411,7.619-7.619S412.079,353.596,407.871,353.596z"/>
	</g>
</g>
<g>
	<g>
		<path d="M170.157,329.215h-66.032c-4.208,0-7.619,3.411-7.619,7.619c0,4.208,3.411,7.619,7.619,7.619h66.032
			c4.208,0,7.619-3.411,7.619-7.619C177.776,332.627,174.365,329.215,170.157,329.215z"/>
	</g>
</g>
<g>
	<g>
		<path d="M170.157,353.596h-66.032c-4.208,0-7.619,3.411-7.619,7.619s3.411,7.619,7.619,7.619h66.032
			c4.208,0,7.619-3.411,7.619-7.619S174.365,353.596,170.157,353.596z"/>
	</g>
</g>
<g>
</g>
<g>
</g>
<g>
</g>
<g>
</g>
<g>
</g>
<g>
</g>
<g>
</g>
<g>
</g>
<g>
</g>
<g>
</g>
<g>
</g>
<g>
</g>
<g>
</g>
<g>
</g>
<g>
</g>
</svg>
